<svg id="visual" viewBox="0 0 900 600" width="900" height="600" xmlns="http://www.w3.org/2000/svg" xmlns:xlink="http://www.w3.org/1999/xlink" version="1.1"><g transform="translate(493.1641416328562 285.317179428872)"><path d="M143.8 -235.4C187.2 -223.9 223.9 -187.2 235.4 -143.8C246.8 -100.3 232.9 -50.2 228.6 -2.5C224.2 45.2 229.5 90.3 210.5 120.8C191.6 151.2 148.6 167 109.4 197.2C70.3 227.5 35.2 272.2 2 268.9C-31.3 265.5 -62.5 213.9 -116.6 192.3C-170.8 170.8 -247.8 179.1 -288.8 152.1C-329.8 125 -334.9 62.5 -314.4 11.8C-293.9 -38.8 -247.9 -77.7 -211.4 -112.7C-175 -147.8 -148.3 -179.1 -114.6 -196.2C-81 -213.3 -40.5 -216.1 4.8 -224.5C50.2 -232.9 100.3 -246.8 143.8 -235.4" fill="#dbacde"></path></g></svg>